<svg width="512" height="512" viewBox="0 0 512 512" fill="none" xmlns="http://www.w3.org/2000/svg">
  <!-- Light Pink Rounded Background -->
  <rect width="512" height="512" rx="128" fill="#FFF0F3"/>
  
  <!-- Fountain Pen Nib Group -->
  <g transform="translate(256, 256) rotate(-45) scale(0.5) translate(-256, -250)">
    <!-- Main Nib Body -->
    <path d="M256 50L130 180C100 210 80 260 80 320V450H432V320C432 260 412 210 382 180L256 50Z" fill="#9DA3C1"/>
    
    <!-- Nib Shading/Detail (Right Side) -->
    <path d="M256 50L382 180C412 210 432 260 432 320V450H256V50Z" fill="#898FAF"/>
    
    <!-- Central Line/Detail -->
    <rect x="251" y="120" width="10" height="330" fill="#4A4E69" rx="5"/>
    
    <!-- Circular Hole -->
    <circle cx="256" cy="180" r="15" fill="#4A4E69"/>
    
    <!-- Tip Detail (Point) -->
    <path d="M256 50L246 65H266L256 50Z" fill="#4A4E69"/>
    
    <!-- Top Cap/Band -->
    <path d="M80 430C80 410 100 390 130 390H382C412 390 432 410 432 430V480H80V430Z" fill="#3D405B"/>
    
    <!-- Gold/Accent Deco on Cap -->
    <rect x="130" y="410" width="252" height="20" fill="#F4A261" rx="10"/>
  </g>
  
  <!-- Subtle Polish -->
  <path d="M128 256C128 185.304 185.304 128 256 128C326.696 128 384 185.304 384 256C384 326.696 326.696 384 256 384C185.304 384 128 326.696 128 256Z" fill="white" fill-opacity="0.05"/>
</svg>
